# Blender v2.83.5 OBJ File: ''
# www.blender.org
mtllib rock_05.mtl
o Rock5_Sphere
v -0.025802 -0.489773 -0.109252
v 0.075969 -0.450779 -0.517340
v 0.419140 -0.521839 -0.457062
v 0.166629 -0.172671 -1.041998
v 0.736285 -0.481625 -0.722440
v 0.139006 -0.359295 -0.843114
v 0.269174 0.300656 -0.978696
v 1.016511 0.005946 -0.939864
v 0.199500 0.068043 -1.090778
v 0.372344 0.472202 -0.717103
v 0.797651 0.575987 -0.321661
v 0.958595 0.491318 -0.645003
v 0.928496 -0.282427 -0.891546
v 1.022951 0.289200 -0.855309
v 0.447595 0.555115 -0.331989
v 0.438339 0.541054 0.118594
v 0.531152 -0.531105 -0.199332
v 1.288988 -0.267059 -0.325342
v 1.385093 0.324894 -0.275128
v 0.935934 0.582995 -0.072253
v 0.998284 -0.497056 -0.275118
v 1.411473 0.039483 -0.324120
v 1.229147 0.516890 -0.192134
v 1.063650 0.043262 0.456284
v 0.906306 -0.214595 0.404988
v 1.083591 0.288533 0.458175
v 0.773907 0.539264 0.276803
v 0.297924 -0.480674 0.120265
v 0.632801 -0.404633 0.299206
v 0.983836 0.462459 0.397361
v -0.125183 -0.523259 0.314239
v -0.192841 -0.326731 0.946307
v -0.186966 -0.495697 0.686079
v 0.043444 0.175510 1.010817
v -0.110180 -0.069334 1.056075
v 0.347118 0.465826 0.531614
v 0.208050 0.353176 0.833295
v -1.027233 0.242268 0.796193
v -1.266842 -0.006211 0.849011
v -0.113461 0.457179 0.487614
v -0.633128 0.388316 0.685484
v -0.496209 -0.585578 0.236248
v -1.283885 -0.320913 0.794625
v -0.971458 -0.582786 0.546511
v -1.069287 -0.515275 -0.022055
v -0.563651 -0.539762 -0.046967
v -1.427130 0.008805 -0.007375
v -1.390404 -0.286609 -0.011835
v -0.854178 0.431805 0.137462
v -1.242581 0.271745 0.040000
v -0.256203 0.491992 0.211958
v -0.580325 0.340436 -0.609953
v 0.010158 0.534545 -0.105900
v -0.310559 -0.438569 -0.348189
v -0.674929 -0.111538 -0.693848
v -0.539096 -0.314323 -0.556429
v -0.685226 0.127230 -0.720215
v -0.353992 0.480841 -0.380026
vn 0.0002 -0.9961 -0.0884
vn -0.1589 -0.9591 -0.2341
vn -0.0681 -0.9867 -0.1472
vn -0.1441 -0.4348 -0.8889
vn 0.1693 -0.8902 -0.4229
vn -0.1742 -0.8235 -0.5398
vn -0.0565 0.6454 -0.7617
vn 0.5510 -0.0335 -0.8338
vn -0.1047 0.1403 -0.9846
vn -0.0518 0.9111 -0.4089
vn 0.0320 0.9923 -0.1195
vn 0.2848 0.8478 -0.4472
vn 0.4472 -0.5343 -0.7172
vn 0.4880 0.4723 -0.7339
vn -0.0769 0.9921 -0.0989
vn -0.0531 0.9937 0.0984
vn 0.0358 -0.9962 0.0786
vn 0.8179 -0.5736 -0.0447
vn 0.9279 0.3666 -0.0684
vn 0.1300 0.9894 0.0643
vn 0.4247 -0.9039 0.0506
vn 0.9881 -0.1229 -0.0921
vn 0.5855 0.8106 0.0104
vn 0.7110 -0.2594 0.6536
vn 0.5282 -0.6269 0.5727
vn 0.7177 0.2376 0.6546
vn 0.0679 0.9662 0.2488
vn 0.0777 -0.9908 0.1106
vn 0.2763 -0.8889 0.3652
vn 0.4325 0.7518 0.4976
vn 0.1415 -0.9891 0.0399
vn 0.1125 -0.6121 0.7827
vn 0.1590 -0.9142 0.3727
vn 0.1730 0.3427 0.9234
vn 0.1113 -0.1411 0.9837
vn 0.0066 0.9566 0.2913
vn 0.1507 0.7561 0.6369
vn -0.3764 0.7132 0.5912
vn -0.6693 0.2493 0.6999
vn -0.0414 0.9740 0.2226
vn -0.1387 0.9062 0.3994
vn 0.0559 -0.9980 -0.0288
vn -0.6580 -0.4567 0.5987
vn -0.2521 -0.9322 0.2598
vn -0.3713 -0.8719 -0.3191
vn -0.0212 -0.9638 -0.2658
vn -0.9293 0.2297 -0.2891
vn -0.8334 -0.4489 -0.3223
vn -0.2770 0.9608 0.0001
vn -0.6379 0.7545 -0.1539
vn -0.0893 0.9920 0.0893
vn -0.3670 0.7615 -0.5342
vn -0.0821 0.9965 -0.0167
vn -0.0907 -0.9470 -0.3081
vn -0.4901 -0.3768 -0.7860
vn -0.2654 -0.7953 -0.5449
vn -0.5378 0.2524 -0.8044
vn -0.1745 0.9611 -0.2138
usemtl Default_OBJ.002
s 1
f 1//1 2//2 3//3
f 4//4 5//5 6//6
f 7//7 8//8 9//9
f 10//10 11//11 12//12
f 6//6 3//3 2//2
f 9//9 13//13 4//4
f 10//10 14//14 7//7
f 15//15 16//16 11//11
f 5//5 17//17 3//3
f 8//8 18//18 13//13
f 12//12 19//19 14//14
f 11//11 16//16 20//20
f 1//1 3//3 17//17
f 13//13 21//21 5//5
f 14//14 22//22 8//8
f 11//11 23//23 12//12
f 18//18 24//24 25//25
f 23//23 26//26 19//19
f 20//20 16//16 27//27
f 1//1 17//17 28//28
f 21//21 25//25 29//29
f 19//19 24//24 22//22
f 20//20 30//30 23//23
f 17//17 29//29 28//28
f 1//1 28//28 31//31
f 29//29 32//32 33//33
f 24//24 34//34 35//35
f 30//30 36//36 37//37
f 28//28 33//33 31//31
f 25//25 35//35 32//32
f 26//26 37//37 34//34
f 27//27 16//16 36//36
f 35//35 38//38 39//39
f 37//37 40//40 41//41
f 33//33 42//42 31//31
f 32//32 39//39 43//43
f 34//34 41//41 38//38
f 36//36 16//16 40//40
f 1//1 31//31 42//42
f 32//32 44//44 33//33
f 42//42 45//45 46//46
f 43//43 47//47 48//48
f 38//38 49//49 50//50
f 40//40 16//16 51//51
f 1//1 42//42 46//46
f 44//44 48//48 45//45
f 39//39 50//50 47//47
f 41//41 51//51 49//49
f 49//49 52//52 50//50
f 51//51 16//16 53//53
f 1//1 46//46 54//54
f 45//45 55//55 56//56
f 50//50 57//57 47//47
f 51//51 58//58 49//49
f 46//46 56//56 54//54
f 47//47 55//55 48//48
f 1//1 54//54 2//2
f 55//55 6//6 56//56
f 52//52 9//9 57//57
f 53//53 10//10 58//58
f 56//56 2//2 54//54
f 57//57 4//4 55//55
f 58//58 7//7 52//52
f 53//53 16//16 15//15
f 4//4 13//13 5//5
f 7//7 14//14 8//8
f 10//10 15//15 11//11
f 6//6 5//5 3//3
f 9//9 8//8 13//13
f 10//10 12//12 14//14
f 5//5 21//21 17//17
f 8//8 22//22 18//18
f 12//12 23//23 19//19
f 13//13 18//18 21//21
f 14//14 19//19 22//22
f 11//11 20//20 23//23
f 18//18 22//22 24//24
f 23//23 30//30 26//26
f 21//21 18//18 25//25
f 19//19 26//26 24//24
f 20//20 27//27 30//30
f 17//17 21//21 29//29
f 29//29 25//25 32//32
f 24//24 26//26 34//34
f 30//30 27//27 36//36
f 28//28 29//29 33//33
f 25//25 24//24 35//35
f 26//26 30//30 37//37
f 35//35 34//34 38//38
f 37//37 36//36 40//40
f 33//33 44//44 42//42
f 32//32 35//35 39//39
f 34//34 37//37 41//41
f 32//32 43//43 44//44
f 42//42 44//44 45//45
f 43//43 39//39 47//47
f 38//38 41//41 49//49
f 44//44 43//43 48//48
f 39//39 38//38 50//50
f 41//41 40//40 51//51
f 49//49 58//58 52//52
f 45//45 48//48 55//55
f 50//50 52//52 57//57
f 51//51 53//53 58//58
f 46//46 45//45 56//56
f 47//47 57//57 55//55
f 55//55 4//4 6//6
f 52//52 7//7 9//9
f 53//53 15//15 10//10
f 56//56 6//6 2//2
f 57//57 9//9 4//4
f 58//58 10//10 7//7
