# Blender v3.0.1 OBJ File: ''
# www.blender.org
o Rock2_Cube.002
v -1.133408 0.074928 -0.156695
v -0.925352 0.671981 -0.273806
v -1.308210 0.283782 -0.850604
v -0.754303 0.382656 -1.036627
v 0.032178 0.812836 -0.662800
v 0.149181 0.324605 -1.162006
v 0.119573 0.157920 -0.667378
v 0.250014 0.272988 0.400628
v 0.367694 -0.325954 0.183972
v -0.401683 0.537609 0.916790
v -1.162842 0.069328 0.832600
v -0.560252 -0.172754 0.715014
v -0.882522 -0.374073 -0.485037
v -0.058992 -0.667739 0.084781
v -0.564543 -0.916190 0.735246
v -0.696251 1.120743 0.388268
v -1.175010 0.945598 1.100321
v 0.133780 0.636389 -0.370036
v -0.982692 -0.420470 0.319312
v -1.189924 -0.482538 -0.483003
v -0.875565 -0.372919 -0.932295
v -0.594629 0.891632 -0.607486
v -0.464359 -0.348541 -1.098933
v 0.187072 -0.678376 -0.541657
v -1.379046 0.743906 0.317474
v 0.093721 -0.426983 -1.111634
vn -0.9980 -0.0169 0.0601
vn -0.7258 0.6130 -0.3121
vn -0.8315 0.3091 -0.4615
vn -0.2977 0.4214 -0.8566
vn 0.5259 0.8306 -0.1832
vn 0.6384 0.2926 -0.7118
vn 0.9942 0.0686 -0.0830
vn 0.8450 0.2269 0.4841
vn 0.8769 -0.3087 0.3684
vn 0.4856 0.1919 0.8528
vn -0.6122 -0.4557 0.6461
vn 0.1494 -0.3559 0.9225
vn 0.0345 -0.9939 -0.1049
vn 0.2927 -0.9265 0.2365
vn -0.0198 -0.7546 0.6558
vn 0.1027 0.9926 0.0639
vn -0.4002 0.5113 0.7605
vn 0.8441 0.5361 -0.0117
vn -0.8035 -0.5458 0.2376
vn -0.5921 -0.8037 -0.0591
vn -0.3031 -0.7258 -0.6175
vn -0.2345 0.8717 -0.4301
vn -0.2301 -0.5634 -0.7934
vn 0.5698 -0.7898 -0.2269
vn -0.9109 0.3654 -0.1918
vn 0.5202 -0.4986 -0.6934
s 1
f 1//1 2//2 3//3
f 4//4 5//5 6//6
f 7//7 8//8 9//9
f 10//10 11//11 12//12
f 13//13 14//14 15//15
f 16//16 17//17 10//10
f 16//16 8//8 18//18
f 13//13 19//19 20//20
f 8//8 12//12 9//9
f 2//2 4//4 3//3
f 21//21 13//13 20//20
f 22//22 18//18 5//5
f 2//2 16//16 22//22
f 23//23 24//24 13//13
f 5//5 7//7 6//6
f 11//11 25//25 1//1
f 19//19 1//1 20//20
f 26//26 7//7 24//24
f 21//21 4//4 23//23
f 14//14 12//12 15//15
f 12//12 19//19 15//15
f 24//24 9//9 14//14
f 23//23 6//6 26//26
f 20//20 3//3 21//21
f 1//1 25//25 2//2
f 4//4 22//22 5//5
f 7//7 18//18 8//8
f 10//10 17//17 11//11
f 13//13 24//24 14//14
f 16//16 25//25 17//17
f 16//16 10//10 8//8
f 13//13 15//15 19//19
f 8//8 10//10 12//12
f 2//2 22//22 4//4
f 21//21 23//23 13//13
f 22//22 16//16 18//18
f 2//2 25//25 16//16
f 23//23 26//26 24//24
f 5//5 18//18 7//7
f 11//11 17//17 25//25
f 19//19 11//11 1//1
f 26//26 6//6 7//7
f 21//21 3//3 4//4
f 14//14 9//9 12//12
f 12//12 11//11 19//19
f 24//24 7//7 9//9
f 23//23 4//4 6//6
f 20//20 1//1 3//3
