# Blender v2.83.5 OBJ File: ''
# www.blender.org
mtllib rock_03.mtl
o Rock3_Cube.017
v -1.284691 0.150363 -0.238235
v -0.301606 0.211383 -1.293707
v -0.450633 -0.145695 -1.440661
v 0.672908 -0.170648 -1.617561
v 0.891034 0.123624 -1.177873
v 1.005225 -0.206635 -1.324437
v 1.227982 0.341387 0.114185
v 0.651031 0.402475 1.235370
v 0.686505 0.103614 1.393892
v -0.108080 0.738099 1.141139
v -0.770312 0.397148 1.353204
v -0.165257 0.392638 1.673667
v 0.404328 -0.389482 0.469677
v 0.851640 -0.382974 1.406585
v 0.057976 -0.396274 1.844319
v -0.546891 1.129321 0.043824
v -0.570076 1.030180 1.157788
v -0.490958 -0.226703 1.981812
v -0.918440 0.045842 1.387280
v -1.042004 -0.350040 1.432572
v -0.303638 0.157791 1.960096
v 1.206320 -0.426482 0.428819
v 0.879441 -0.038793 1.384609
v 1.389281 0.071579 0.307556
v 0.741842 -0.417572 -1.751374
v 1.203862 -0.799910 -1.572025
v 0.685235 -0.819210 -1.704795
v 1.178171 -0.332444 -1.563369
v -1.235713 -0.615216 -0.336707
v -0.566407 -0.310725 -1.560582
v -0.672210 -0.744011 -1.503246
v -1.301961 -0.219721 -0.310417
v 0.180451 -0.103975 -1.737953
v 0.235887 -0.371792 -1.870782
v 0.110953 -0.789197 -1.686589
v 0.137708 -0.040989 1.893059
v 0.186660 0.224076 1.758623
v 0.923637 0.702146 -0.146223
v 0.385052 0.542126 1.195795
v 0.106218 0.769611 -0.292901
v -0.440700 -0.362399 0.610651
v -1.198116 -0.455752 0.527369
v 0.556139 0.359000 -1.347000
v 0.468986 -0.536536 -0.526900
v -0.379394 -0.569904 -0.444409
v 0.189490 0.415155 -1.447361
v 0.169397 0.616340 -0.639071
v -0.435051 0.750149 -0.589373
v 0.896651 0.612548 -0.510303
v -0.932746 0.092311 0.565959
v 1.232595 -0.095608 -0.457506
v 1.110930 -0.556509 -0.520801
v -1.040161 0.811496 -0.288210
v 1.135959 0.201446 -0.376316
v -0.980749 0.452779 0.413324
v -1.012980 1.018952 0.363465
vn -0.9768 0.1849 -0.1075
vn -0.5056 0.5401 -0.6728
vn -0.5121 0.6103 -0.6044
vn 0.3607 0.5545 -0.7499
vn 0.7386 0.4944 -0.4582
vn 0.5336 0.7670 -0.3563
vn 0.8162 0.5771 0.0274
vn 0.6150 0.6308 0.4730
vn 0.6083 0.5298 0.5910
vn 0.2962 0.8542 0.4272
vn -0.7066 0.4952 0.5054
vn -0.0025 0.8131 0.5821
vn -0.0152 -0.9962 0.0862
vn 0.5862 -0.6461 0.4888
vn 0.1253 -0.7715 0.6237
vn 0.0802 0.9802 -0.1807
vn -0.1661 0.7788 0.6048
vn -0.3941 -0.4154 0.8198
vn -0.8638 0.3551 0.3575
vn -0.7381 -0.5362 0.4095
vn -0.1651 0.4537 0.8757
vn 0.6341 -0.7528 0.1765
vn 0.7454 0.3285 0.5800
vn 0.9710 0.1821 0.1547
vn 0.2732 0.1895 -0.9431
vn 0.6756 -0.6373 -0.3706
vn 0.1012 -0.8217 -0.5608
vn 0.7435 0.4411 -0.5026
vn -0.6708 -0.7364 -0.0877
vn -0.5811 0.3275 -0.7450
vn -0.5546 -0.6391 -0.5328
vn -0.9813 0.0384 -0.1883
vn -0.0655 0.4823 -0.8735
vn -0.0527 0.0819 -0.9952
vn -0.1577 -0.8401 -0.5190
vn 0.3923 0.0772 0.9166
vn 0.4094 0.5513 0.7269
vn 0.5033 0.8629 -0.0452
vn 0.3195 0.8747 0.3645
vn 0.2151 0.9564 -0.1974
vn 0.0274 -0.9926 0.1183
vn -0.7789 -0.5600 0.2824
vn 0.3983 0.7176 -0.5712
vn 0.0050 -0.9836 0.1805
vn 0.0515 -0.9838 0.1716
vn -0.0278 0.7465 -0.6647
vn 0.1335 0.9387 -0.3178
vn -0.0573 0.8529 -0.5189
vn 0.5511 0.7725 -0.3155
vn -0.9538 0.2023 0.2219
vn 0.9823 0.0729 -0.1725
vn 0.6026 -0.7898 0.1142
vn -0.7176 0.5868 -0.3750
vn 0.8722 0.4052 -0.2740
vn -0.9507 0.0890 0.2971
vn -0.7900 0.5943 0.1507
usemtl Default_OBJ
s 1
f 1//1 2//2 3//3
f 4//4 5//5 6//6
f 7//7 8//8 9//9
f 10//10 11//11 12//12
f 13//13 14//14 15//15
f 16//16 17//17 10//10
f 18//18 19//19 20//20
f 21//21 11//11 19//19
f 22//22 23//23 14//14
f 24//24 9//9 23//23
f 25//25 26//26 27//27
f 4//4 28//28 25//25
f 29//29 30//30 31//31
f 32//32 3//3 30//30
f 30//30 33//33 34//34
f 34//34 4//4 25//25
f 30//30 35//35 31//31
f 34//34 27//27 35//35
f 9//9 36//36 23//23
f 37//37 21//21 36//36
f 14//14 36//36 15//15
f 36//36 18//18 15//15
f 38//38 39//39 8//8
f 40//40 10//10 39//39
f 41//41 20//20 42//42
f 41//41 15//15 18//18
f 8//8 37//37 9//9
f 39//39 12//12 37//37
f 2//2 33//33 3//3
f 33//33 43//43 4//4
f 35//35 44//44 45//45
f 45//45 13//13 41//41
f 31//31 45//45 29//29
f 45//45 42//42 29//29
f 46//46 47//47 43//43
f 48//48 40//40 47//47
f 43//43 49//49 5//5
f 49//49 40//40 38//38
f 11//11 50//50 19//19
f 50//50 1//1 32//32
f 20//20 50//50 42//42
f 42//42 32//32 29//29
f 6//6 51//51 28//28
f 51//51 7//7 24//24
f 28//28 52//52 26//26
f 51//51 22//22 52//52
f 2//2 48//48 46//46
f 53//53 16//16 48//48
f 27//27 52//52 44//44
f 44//44 22//22 13//13
f 5//5 54//54 6//6
f 54//54 38//38 7//7
f 17//17 55//55 11//11
f 55//55 53//53 1//1
f 1//1 53//53 2//2
f 4//4 43//43 5//5
f 7//7 38//38 8//8
f 10//10 17//17 11//11
f 13//13 22//22 14//14
f 16//16 56//56 17//17
f 18//18 21//21 19//19
f 21//21 12//12 11//11
f 22//22 24//24 23//23
f 24//24 7//7 9//9
f 25//25 28//28 26//26
f 4//4 6//6 28//28
f 29//29 32//32 30//30
f 32//32 1//1 3//3
f 30//30 3//3 33//33
f 34//34 33//33 4//4
f 30//30 34//34 35//35
f 34//34 25//25 27//27
f 9//9 37//37 36//36
f 37//37 12//12 21//21
f 14//14 23//23 36//36
f 36//36 21//21 18//18
f 38//38 40//40 39//39
f 40//40 16//16 10//10
f 41//41 18//18 20//20
f 41//41 13//13 15//15
f 8//8 39//39 37//37
f 39//39 10//10 12//12
f 2//2 46//46 33//33
f 33//33 46//46 43//43
f 35//35 27//27 44//44
f 45//45 44//44 13//13
f 31//31 35//35 45//45
f 45//45 41//41 42//42
f 46//46 48//48 47//47
f 48//48 16//16 40//40
f 43//43 47//47 49//49
f 49//49 47//47 40//40
f 11//11 55//55 50//50
f 50//50 55//55 1//1
f 20//20 19//19 50//50
f 42//42 50//50 32//32
f 6//6 54//54 51//51
f 51//51 54//54 7//7
f 28//28 51//51 52//52
f 51//51 24//24 22//22
f 2//2 53//53 48//48
f 53//53 56//56 16//16
f 27//27 26//26 52//52
f 44//44 52//52 22//22
f 5//5 49//49 54//54
f 54//54 49//49 38//38
f 17//17 56//56 55//55
f 55//55 56//56 53//53
