# Blender v3.0.1 OBJ File: ''
# www.blender.org
o Rock1_Circle
v -0.514740 0.077561 0.639841
v 0.699661 -0.035624 0.700397
v -0.144505 0.015049 1.083150
v 1.014408 0.759815 0.316556
v 0.960449 0.666570 -1.038490
v -0.237480 0.780334 -0.947909
v 1.003574 0.843748 0.877636
v 0.529365 0.885639 1.012468
v -0.342416 0.871013 0.693905
v -0.632069 0.139369 -0.463819
v -0.598537 0.976406 0.067644
v 0.746445 -0.036085 -0.303485
v 0.442070 0.058564 1.151070
v -0.089889 -0.024919 -1.189679
v 0.647479 0.576250 -1.580295
v 0.542894 -0.052669 -1.202938
vn -0.7529 -0.5776 0.3154
vn 0.5682 -0.7768 0.2716
vn -0.4080 -0.5614 0.7199
vn 0.8548 0.5173 -0.0417
vn 0.8365 0.4622 -0.2942
vn -0.4899 0.6944 -0.5270
vn 0.7216 0.4772 0.5015
vn 0.1390 0.7132 0.6870
vn -0.4854 0.7024 0.5205
vn -0.8285 -0.5139 -0.2223
vn -0.6608 0.7502 0.0210
vn 0.5583 -0.8294 -0.0175
vn 0.3448 -0.4538 0.8217
vn -0.4856 -0.6508 -0.5835
vn 0.3132 0.2979 -0.9017
vn 0.3709 -0.8103 -0.4536
s 1
f 1//1 2//2 3//3
f 4//4 5//5 6//6
f 2//2 4//4 7//7
f 3//3 8//8 9//9
f 10//10 11//11 6//6
f 12//12 5//5 4//4
f 2//2 8//8 13//13
f 1//1 9//9 11//11
f 14//14 6//6 15//15
f 16//16 15//15 5//5
f 1//1 10//10 12//12
f 10//10 14//14 12//12
f 14//14 16//16 12//12
f 12//12 2//2 1//1
f 2//2 13//13 3//3
f 15//15 6//6 5//5
f 6//6 11//11 4//4
f 11//11 9//9 4//4
f 9//9 8//8 4//4
f 8//8 7//7 4//4
f 2//2 12//12 4//4
f 3//3 13//13 8//8
f 10//10 1//1 11//11
f 12//12 16//16 5//5
f 2//2 7//7 8//8
f 1//1 3//3 9//9
f 14//14 10//10 6//6
f 16//16 14//14 15//15
